<svg width="44" height="44" viewBox="0 0 44 44" fill="none" xmlns="http://www.w3.org/2000/svg">
<g clip-path="url(#clip0_31_7823)">
<path d="M12.0738 13.42V31.9H16.4298V26.0392C16.4298 24.4376 16.3858 23.012 16.2978 21.7624C16.275 21.3517 16.2457 20.942 16.2099 20.5331L21.1818 27.412H22.9242L27.9731 20.4898C27.9292 20.9404 27.8919 21.391 27.861 21.8416C27.7906 23.1088 27.7554 24.508 27.7554 26.0392V31.9H32.1114V13.42H28.2042L22.1057 22.1691L16.0866 13.42H12.0738Z" fill="white"/>
<path fill-rule="evenodd" clip-rule="evenodd" d="M0 22C0 11.6291 0 6.44365 3.22183 3.22183C6.44365 0 11.6291 0 22 0C32.3709 0 37.5564 0 40.7782 3.22183C44 6.44365 44 11.6291 44 22C44 32.3709 44 37.5564 40.7782 40.7782C37.5564 44 32.3709 44 22 44C11.6291 44 6.44365 44 3.22183 40.7782C0 37.5564 0 32.3709 0 22ZM22 41.0667C16.7316 41.0667 13.0754 41.0604 10.3209 40.6901C7.65069 40.3311 6.27106 39.6791 5.29601 38.704C4.32095 37.7289 3.6689 36.3493 3.3099 33.6791C2.93956 30.9246 2.93333 27.2684 2.93333 22C2.93333 16.7316 2.93956 13.0754 3.3099 10.3209C3.6689 7.65069 4.32095 6.27106 5.29601 5.29601C6.27106 4.32095 7.65069 3.6689 10.3209 3.3099C13.0754 2.93956 16.7316 2.93333 22 2.93333C27.2684 2.93333 30.9246 2.93956 33.6791 3.3099C36.3493 3.6689 37.7289 4.32095 38.704 5.29601C39.6791 6.27106 40.3311 7.65069 40.6901 10.3209C41.0604 13.0754 41.0667 16.7316 41.0667 22C41.0667 27.2684 41.0604 30.9246 40.6901 33.6791C40.3311 36.3493 39.6791 37.7289 38.704 38.704C37.7289 39.6791 36.3493 40.3311 33.6791 40.6901C30.9246 41.0604 27.2684 41.0667 22 41.0667Z" fill="white"/>
</g>
<defs>
<clipPath id="clip0_31_7823">
<rect width="44" height="44" fill="white"/>
</clipPath>
</defs>
</svg>
