<svg width="20" height="20" viewBox="0 0 20 20" fill="none" xmlns="http://www.w3.org/2000/svg">
<g clip-path="url(#clip0_1282_15649)">
<path opacity="0.1" d="M10 19.5C4.75329 19.5 0.5 15.2467 0.5 10C0.5 4.75329 4.75329 0.5 10 0.5C15.2467 0.5 19.5 4.75329 19.5 10C19.5 15.2467 15.2467 19.5 10 19.5Z" fill="#476285" stroke="#476285"/>
<path d="M14.3749 10.1373L9.68875 2.5V8.04375L13.7915 9.8768L9.68875 8.04485V12.858L14.3749 10.1375L14.375 10.1375L14.375 10.1374L14.375 10.1374L14.3749 10.1373ZM9.6875 8.04375V2.5L5.002 10.1373L5.0019 10.1374L5.00195 10.1374L5.0019 10.1375L5.00205 10.1375L9.6875 12.858V8.04485L5.58535 9.8768L9.6875 8.04375ZM9.6875 13.7299V17.4968L4.99876 11.0099L9.6875 13.7299ZM9.68875 13.7293V17.4968L14.375 11.0099L9.68875 13.7293Z" fill="#476285"/>
</g>
<defs>
<clipPath id="clip0_1282_15649">
<rect width="20" height="20" fill="white"/>
</clipPath>
</defs>
</svg>
