<svg width="18" height="16" viewBox="0 0 18 16" fill="none" xmlns="http://www.w3.org/2000/svg">
<path d="M16.3667 1.84172C15.941 1.41589 15.4357 1.0781 14.8795 0.847626C14.3232 0.617158 13.7271 0.498535 13.125 0.498535C12.5229 0.498535 11.9268 0.617158 11.3705 0.847626C10.8143 1.0781 10.309 1.41589 9.88333 1.84172L9 2.72506L8.11666 1.84172C7.25692 0.98198 6.09086 0.498981 4.875 0.498981C3.65914 0.498981 2.49307 0.98198 1.63333 1.84172C0.773587 2.70147 0.290588 3.86753 0.290588 5.08339C0.290588 6.29925 0.773587 7.46531 1.63333 8.32506L2.51666 9.20839L9 15.6917L15.4833 9.20839L16.3667 8.32506C16.7925 7.89943 17.1303 7.39407 17.3608 6.83785C17.5912 6.28164 17.7099 5.68546 17.7099 5.08339C17.7099 4.48132 17.5912 3.88514 17.3608 3.32893C17.1303 2.77271 16.7925 2.26735 16.3667 1.84172Z" fill="url(#paint0_linear_1094_18451)"/>
<defs>
<linearGradient id="paint0_linear_1094_18451" x1="14.8066" y1="0.498538" x2="0.0165783" y2="4.47541" gradientUnits="userSpaceOnUse">
<stop stop-color="#0698F9"/>
<stop offset="1" stop-color="#F906F9"/>
</linearGradient>
</defs>
</svg>
