<svg width="22" height="22" viewBox="0 0 22 22" fill="none" xmlns="http://www.w3.org/2000/svg">
<path d="M16.2375 6.25583H17.1899M5.28511 1.47778H16.7137C18.8176 1.47778 20.5232 3.18915 20.5232 5.30022V16.7675C20.5232 18.8786 18.8176 20.59 16.7137 20.59H5.28511C3.18117 20.59 1.47559 18.8786 1.47559 16.7675V5.30022C1.47559 3.18915 3.18117 1.47778 5.28511 1.47778ZM10.9994 14.8563C8.89545 14.8563 7.18987 13.145 7.18987 11.0339C7.18987 8.9228 8.89545 7.21144 10.9994 7.21144C13.1033 7.21144 14.8089 8.9228 14.8089 11.0339C14.8089 13.145 13.1033 14.8563 10.9994 14.8563Z" stroke="#11315B" stroke-width="1.67232"/>
</svg>
