<svg width="108" height="108" viewBox="0 0 108 108" fill="none" xmlns="http://www.w3.org/2000/svg">
<path d="M0 0H4.32V4.31994V25.92V30.24H0V0Z" fill="#21204A"/>
<path d="M4.32 0H30.24V30.24H4.32V25.92H25.92V4.32L4.32 4.31994V0Z" fill="#21204A"/>
<path d="M43.2 0H47.52V8.64H38.88V12.96H34.56V4.31994H43.2V0Z" fill="#21204A"/>
<path d="M82.08 77.76H77.76V82.08H82.08V77.76Z" fill="#21204A"/>
<path fill-rule="evenodd" clip-rule="evenodd" d="M51.84 30.24H47.52V17.28H43.2V12.96H38.88V17.28H34.56V34.56H25.92V38.88H34.56V51.84H43.2V56.16H47.52V64.8H30.24V60.48H38.88V56.16H30.24V51.84H25.92V56.16H21.6V51.84H17.28V43.2H21.6V47.52H30.24V43.2H21.6V38.88H17.28V34.56H12.96V38.88H17.28V43.2H8.64V51.84H4.32002V56.16H8.64V51.84H17.28V56.16H12.96V64.8H4.32002V69.12V73.44H12.96V69.12H17.28V73.44H34.56V82.08H43.2V86.4H38.88V90.72H34.56V95.04H38.88V99.36H34.56V108H47.52V103.68H51.84V108H60.48V103.68H64.8V108H86.4V103.68H82.08V99.36H77.76V103.68H73.44V90.72H82.08V95.04H86.4V99.36H90.72V103.68H95.04V99.36H99.36V90.72H103.68V82.08H108V73.44H103.68V77.76H99.36V69.12H103.68V64.8H108V51.84H99.36V56.16H95.04V51.84H90.72V60.48H86.4V56.16H82.08V51.84H77.76V47.52H86.4V43.2H82.08V38.88H90.72V34.56H77.76V38.88H69.12V43.2H73.44V47.52H69.12V51.84H64.8V47.52H60.48V38.88H64.8V34.56H69.12V30.24H73.44V25.92H69.12V21.6H73.44V17.28H64.8V12.96H69.12V4.32H73.44V0H56.16V8.64H60.48V17.28H56.16V12.96H51.84V30.24ZM60.48 25.92H56.16V30.24H51.84V34.56H60.48V25.92ZM64.8 25.92V17.28H60.48V25.92H64.8ZM64.8 25.92V30.24H69.12V25.92H64.8ZM64.8 56.16V51.84H60.48V56.16H64.8ZM56.16 69.12V86.4H64.8V90.72H69.12V82.08H60.48V77.76H64.8V69.12H73.44V64.8H77.76V69.12H86.4V64.8H82.08V60.48H69.12V56.16H64.8V60.48H60.48V69.12H56.16ZM51.84 69.12H56.16V51.84H51.84V69.12ZM51.84 69.12H47.52V73.44H43.2V77.76H51.84V69.12ZM95.04 64.8V60.48H90.72V64.8H95.04ZM99.36 64.8V69.12H95.04V64.8H99.36ZM99.36 64.8V56.16H103.68V64.8H99.36ZM99.36 77.76H90.72V82.08H99.36V77.76ZM99.36 90.72V86.4H90.72V95.04H95.04V90.72H99.36ZM51.84 95.04V99.36H47.52V103.68H38.88V99.36H43.2V95.04H51.84ZM51.84 90.72H60.48V95.04H51.84V90.72ZM51.84 90.72V82.08H47.52V86.4H43.2V90.72H51.84ZM25.92 60.48V64.8H30.24V69.12H17.28V60.48H25.92ZM25.92 60.48V56.16H30.24V60.48H25.92ZM34.56 38.88H43.2V43.2H38.88V47.52H47.52V34.56H43.2V21.6H38.88V34.56H34.56V38.88ZM86.4 86.4V73.44H73.44V86.4H86.4Z" fill="#21204A"/>
<path d="M86.4 8.64V21.6H99.36V8.64H86.4Z" fill="#21204A"/>
<path fill-rule="evenodd" clip-rule="evenodd" d="M77.76 0V30.24H108V0H77.76ZM103.68 25.92H82.08V4.32H103.68V25.92Z" fill="#21204A"/>
<path d="M8.64 8.64V21.6H21.6V8.64H8.64Z" fill="#21204A"/>
<path d="M0 34.56H4.32V38.88H0V34.56Z" fill="#21204A"/>
<path d="M8.64 34.56H4.32V38.88H8.64V34.56Z" fill="#21204A"/>
<path d="M95.04 34.56H103.68V38.88H95.04V34.56Z" fill="#21204A"/>
<path d="M103.68 38.88H108V47.52H99.36V43.2H103.68V38.88Z" fill="#21204A"/>
<path d="M4.32 47.52H0V56.16H4.32002V51.84L4.32 47.52Z" fill="#21204A"/>
<path d="M0 60.48H4.32L4.32002 64.8H0V60.48Z" fill="#21204A"/>
<path d="M0 69.12H4.32002V73.44H0V69.12Z" fill="#21204A"/>
<path d="M0 77.76H4.32V82.08V103.68V108H0V77.76Z" fill="#21204A"/>
<path d="M4.32 77.76V82.08H25.92V103.68H4.32V108H30.24V77.76H4.32Z" fill="#21204A"/>
<path d="M8.64 86.4V99.36H21.6V86.4H8.64Z" fill="#21204A"/>
<path d="M103.68 95.04H108V99.36H103.68V95.04Z" fill="#21204A"/>
<path d="M99.36 103.68V108H108V103.68H99.36Z" fill="#21204A"/>
</svg>
