<svg width="24" height="24" viewBox="0 0 24 24" fill="none" xmlns="http://www.w3.org/2000/svg">
<path d="M9.69492 2.15032C10.6995 0.341645 13.3005 0.341645 14.3051 2.15032C14.9004 3.22217 16.156 3.74225 17.3348 3.40528C19.3241 2.83667 21.1633 4.67592 20.5947 6.66516C20.2577 7.84403 20.7778 9.09961 21.8497 9.69492C23.6584 10.6995 23.6584 13.3005 21.8497 14.3051C20.7778 14.9004 20.2577 16.156 20.5947 17.3348C21.1633 19.3241 19.3241 21.1633 17.3348 20.5947C16.156 20.2577 14.9004 20.7778 14.3051 21.8497C13.3005 23.6584 10.6995 23.6584 9.69492 21.8497C9.09961 20.7778 7.84403 20.2577 6.66516 20.5947C4.67592 21.1633 2.83667 19.3241 3.40528 17.3348C3.74225 16.156 3.22217 14.9004 2.15032 14.3051C0.341644 13.3005 0.341645 10.6995 2.15032 9.69492C3.22217 9.09961 3.74225 7.84403 3.40528 6.66516C2.83667 4.67592 4.67592 2.83667 6.66516 3.40528C7.84403 3.74225 9.09961 3.22217 9.69492 2.15032Z" fill="#FED144"/>
</svg>
