<svg width="22" height="19" viewBox="0 0 22 19" fill="none" xmlns="http://www.w3.org/2000/svg">
<path d="M20.4938 0.911133L21.3281 0.856004C21.306 0.520291 21.0847 0.230572 20.7667 0.120763C20.4487 0.0109549 20.0958 0.102448 19.8712 0.352951L20.4938 0.911133ZM19.9715 4.9505C19.9715 4.4887 19.5972 4.11434 19.1354 4.11434C18.6736 4.11434 18.2992 4.4887 18.2992 4.9505H19.9715ZM10.9994 6.16698V7.00314H11.8356V6.16698H10.9994ZM2.83403 0.911133L3.61742 0.618805C3.50096 0.306713 3.21037 0.0935178 2.87771 0.0761163C2.54505 0.0587147 2.2338 0.240427 2.08541 0.538664L2.83403 0.911133ZM8.14225 13.3341L8.73496 13.9238C8.93896 13.7188 9.02253 13.423 8.95595 13.1415C8.88936 12.8601 8.68207 12.6331 8.40784 12.5412L8.14225 13.3341ZM1.47559 15.9279V15.0917C1.10747 15.0917 0.782657 15.3324 0.675582 15.6846C0.568507 16.0368 0.704361 16.4176 1.01019 16.6225L1.47559 15.9279ZM18.0961 2.23995L17.4749 2.7997L17.7764 3.13428L18.2217 3.06662L18.0961 2.23995ZM19.6595 0.966262C19.7291 2.02053 19.6629 2.64103 19.5015 3.09751C19.3464 3.53639 19.0748 3.90486 18.5558 4.40386L19.7149 5.60935C20.3184 5.02904 20.7986 4.4459 21.0782 3.65493C21.3516 2.88156 21.4033 1.99398 21.3281 0.856004L19.6595 0.966262ZM19.9715 5.94514V5.0066H18.2992V5.94514H19.9715ZM19.9715 5.0066V4.9505H18.2992V5.0066H19.9715ZM10.1632 5.21137V6.16698H11.8356V5.21137H10.1632ZM15.1159 0.0749746C12.3273 0.0749746 10.1632 2.5032 10.1632 5.21137H11.8356C11.8356 3.33385 13.3412 1.74729 15.1159 1.74729V0.0749746ZM18.2992 5.94514C18.2992 11.7698 13.4218 16.7981 7.66606 16.7981V18.4705C14.3833 18.4705 19.9715 12.655 19.9715 5.94514H18.2992ZM2.05064 1.20346C2.81568 3.25365 5.66668 7.00314 10.9994 7.00314V5.33083C6.55131 5.33083 4.21083 2.20903 3.61742 0.618805L2.05064 1.20346ZM2.08541 0.538664C0.648607 3.42647 0.386484 6.27814 1.40504 8.72389C2.42379 11.1701 4.65611 13.0481 7.87666 14.1269L8.40784 12.5412C5.51539 11.5723 3.73516 9.9691 2.94883 8.08097C2.1623 6.19235 2.30256 3.85642 3.58265 1.2836L2.08541 0.538664ZM7.54954 12.7443C6.76269 13.535 4.46455 15.0917 1.47559 15.0917V16.764C5.00715 16.764 7.71058 14.9533 8.73496 13.9238L7.54954 12.7443ZM18.7172 1.6802C17.8304 0.696088 16.5452 0.0749746 15.1159 0.0749746V1.74729C16.0504 1.74729 16.8908 2.15153 17.4749 2.7997L18.7172 1.6802ZM18.2217 3.06662C19.2942 2.90363 20.3361 2.33959 21.1164 1.46931L19.8712 0.352951C19.3392 0.946316 18.6438 1.31095 17.9704 1.41328L18.2217 3.06662ZM1.01019 16.6225C3.22907 18.1091 5.3668 18.4705 7.66606 18.4705V16.7981C5.5751 16.7981 3.79743 16.4769 1.94099 15.2332L1.01019 16.6225Z" fill="#11315B"/>
</svg>
