<svg width="28" height="24" viewBox="0 0 28 24" fill="none" xmlns="http://www.w3.org/2000/svg">
<path d="M20.0208 0C24.6193 0 27.3334 2.64612 27.3334 7.17573H21.6919V7.22196C19.0736 7.22196 16.9511 9.29132 16.9511 11.844C16.9511 14.3967 19.0736 16.4661 21.6919 16.4661H27.3334V16.882C27.3334 21.3539 24.6193 24 20.0208 24H7.97928C3.38076 24 0.666687 21.3539 0.666687 16.882V7.11796C0.666687 2.64612 3.38076 0 7.97928 0H20.0208ZM26.3378 9.16322C26.8876 9.16322 27.3334 9.59778 27.3334 10.1338V13.5079C27.327 14.0414 26.885 14.4723 26.3378 14.4786H21.7985C20.4731 14.496 19.314 13.6112 19.0134 12.3524C18.8628 11.5711 19.0742 10.7648 19.5908 10.1496C20.1074 9.53449 20.8765 9.17343 21.6919 9.16322H26.3378ZM22.3319 10.7232H21.8934C21.6241 10.7201 21.3648 10.8222 21.1733 11.0067C20.9818 11.1912 20.8741 11.4428 20.8741 11.7053C20.8741 12.2561 21.3285 12.7043 21.8934 12.7106H22.3319C22.8948 12.7106 23.3511 12.2657 23.3511 11.7169C23.3511 11.1681 22.8948 10.7232 22.3319 10.7232ZM14.5096 5.18825H6.98372C6.4254 5.18822 5.97096 5.62613 5.96446 6.17044C5.96446 6.72117 6.41889 7.1694 6.98372 7.17573H14.5096C15.0726 7.17573 15.5289 6.73082 15.5289 6.18199C15.5289 5.63317 15.0726 5.18825 14.5096 5.18825Z" fill="#476285"/>
</svg>
