<svg width="20" height="21" viewBox="0 0 20 21" fill="none" xmlns="http://www.w3.org/2000/svg">
<g clip-path="url(#clip0_91_21599)">
<path d="M18.7835 5.36823C18.6845 4.9714 18.4829 4.6078 18.199 4.31417C17.9152 4.02054 17.5591 3.80728 17.1668 3.69591C15.7335 3.34473 10.0002 3.34473 10.0002 3.34473C10.0002 3.34473 4.26682 3.34473 2.83348 3.72936C2.44119 3.84072 2.08513 4.05399 1.80127 4.34762C1.51741 4.64125 1.31581 5.00484 1.21682 5.40168C0.954496 6.86124 0.826181 8.34187 0.833484 9.82495C0.824134 11.3192 0.952457 12.8111 1.21682 14.2817C1.32595 14.6662 1.53207 15.0159 1.81527 15.2972C2.09847 15.5784 2.44917 15.7816 2.83348 15.8871C4.26682 16.2717 10.0002 16.2717 10.0002 16.2717C10.0002 16.2717 15.7335 16.2717 17.1668 15.8871C17.5591 15.7757 17.9152 15.5625 18.199 15.2688C18.4829 14.9752 18.6845 14.6116 18.7835 14.2148C19.0438 12.7662 19.1721 11.2969 19.1668 9.82495C19.1762 8.3307 19.0478 6.83878 18.7835 5.36823V5.36823Z" stroke="#11315B" stroke-width="1.67232" stroke-linecap="round" stroke-linejoin="round"/>
<path d="M8.125 12.5591L12.9167 9.82481L8.125 7.09058V12.5591Z" stroke="#11315B" stroke-width="1.67232" stroke-linecap="round" stroke-linejoin="round"/>
</g>
<defs>
<clipPath id="clip0_91_21599">
<rect width="20" height="20.0678" fill="white"/>
</clipPath>
</defs>
</svg>
